<?xml version="1.0" encoding="utf-8"?>
<!-- Generator: Adobe Illustrator 28.3.0, SVG Export Plug-In . SVG Version: 6.00 Build 0)  -->
<svg version="1.1" id="Layer_1" xmlns="http://www.w3.org/2000/svg" xmlns:xlink="http://www.w3.org/1999/xlink" x="0px" y="0px"
	 viewBox="0 0 98 104.62" style="enable-background:new 0 0 98 104.62;" xml:space="preserve">
<circle cx="38.3" cy="35.29" r="2"/>
<circle cx="38.3" cy="41.59" r="2"/>
<circle cx="38.3" cy="47.99" r="2"/>
<circle cx="38.3" cy="54.29" r="2"/>
<circle cx="38.3" cy="60.69" r="2"/>
<circle cx="60.9" cy="35.29" r="2"/>
<circle cx="60.9" cy="41.59" r="2"/>
<circle cx="60.9" cy="47.99" r="2"/>
<circle cx="60.9" cy="54.29" r="2"/>
<circle cx="60.9" cy="60.69" r="2"/>
<path d="M96.4,82.89h0.2c1.1,0,2-0.9,2-2s-0.9-2-2-2h-0.2h-1.5v-4.1h1.5h0.2c1.1,0,2-0.9,2-2s-0.9-2-2-2h-0.2h-7.3v-4.2h1
	c1.1,0,2-0.9,2-2c0-1.1-0.9-2-2-2h-1v-2h1c1.1,0,2-0.9,2-2s-0.9-2-2-2h-1v-2h1c1.1,0,2-0.9,2-2s-0.9-2-2-2h-1v-2h1c1.1,0,2-0.9,2-2
	s-0.9-2-2-2h-1v-6.8c0-1.1-0.9-2-2-2H74.4v-3.9h1.9c1.1,0,2-0.9,2-2s-0.9-2-2-2h-3.8h-0.1h-0.1h-15v-3.4h19c1.1,0,2-0.9,2-2
	s-0.9-2-2-2h-19V9.89c0-1.1-0.9-2-2-2s-2,0.9-2,2v55h-1.7v-55c0-1.1-0.9-2-2-2s-2,0.9-2,2v55h-1.8v-55c0-1.1-0.9-2-2-2s-2,0.9-2,2
	v10.8h-19c-1.1,0-2,0.9-2,2s0.9,2,2,2h19v3.4h-15h-0.1h-0.1h-3.8c-1.1,0-2,0.9-2,2s0.9,2,2,2h1.9v4.5H12.1c-1.1,0-2,0.9-2,2v6.8h-1
	c-1.1,0-2,0.9-2,2s0.9,2,2,2h1v2h-1c-1.1,0-2,0.9-2,2s0.9,2,2,2h1v2h-1c-1.1,0-2,0.9-2,2s0.9,2,2,2h1v2h-1c-1.1,0-2,0.9-2,2
	s0.9,2,2,2h1v3.5H2.8c-1.1,0-2,0.9-2,2s0.9,2,2,2h1.5v4.1H2.8H2.6c-1.1,0-2,0.9-2,2s0.9,2,2,2h0.2h1.5v4.9H2.8H2.6c-1.1,0-2,0.9-2,2
	s0.9,2,2,2h0.2h42.8h7.8h43h0.2c1.1,0,2-0.9,2-2s-0.9-2-2-2h-0.2h-1.5v-5H96.4z M27.9,83.39v3.9H24v-3.9H27.9z M20.1,87.69H8.2v-4.8
	h11.9V87.69z M31.8,82.89h11.9v4.9H31.8V82.89z M67.4,82.89v4.9h-12v-4.9H67.4z M75.2,83.39v3.9h-3.9v-3.9H75.2z M79.1,82.89H91v4.9
	H79.1V82.89z M8.2,78.99v-4.1h29.1H60h1.9H91v4.1H8.2z M43.7,68.79L43.7,68.79h0.2h11.2h0.1h0.1h4.6v2.1H39.2v-2.1H43.7z
	 M57.3,31.89h13.2v4.5H67c-1.1,0-2,0.9-2,2c0,1.1,0.9,2,2,2h18.2v4.9H67.6c-1.1,0-2,0.9-2,2s0.9,2,2,2h17.6v2H67.6c-1.1,0-2,0.9-2,2
	s0.9,2,2,2h17.6v2H67.6c-1.1,0-2,0.9-2,2s0.9,2,2,2h17.6v2H67.6c-1.1,0-2,0.9-2,2s0.9,2,2,2h17.6v3.6H63.9v-4.1c0-1.1-0.9-2-2-2
	h-4.7v-32.9H57.3z M14,66.69h17.6c1.1,0,2-0.9,2-2c0-1.1-0.9-2-2-2H14v-2h17.6c1.1,0,2-0.9,2-2s-0.9-2-2-2H14v-2h17.6
	c1.1,0,2-0.9,2-2s-0.9-2-2-2H14v-2h17.6c1.1,0,2-0.9,2-2s-0.9-2-2-2H14v-4.9h18.2c1.1,0,2-0.9,2-2c0-1.1-0.9-2-2-2h-3.5v-3.9h13.2
	v33h-4.6c-1.1,0-2,0.9-2,2v4H14V66.69z M47.6,87.69v-3.9h3.9v3.9H47.6z"/>
</svg>
