<?xml version="1.0" encoding="utf-8"?>
<!-- Generator: Adobe Illustrator 28.3.0, SVG Export Plug-In . SVG Version: 6.00 Build 0)  -->
<svg version="1.1" id="Layer_1" xmlns="http://www.w3.org/2000/svg" xmlns:xlink="http://www.w3.org/1999/xlink" x="0px" y="0px"
	 viewBox="0 0 100 125" style="enable-background:new 0 0 100 125;" xml:space="preserve">
<style type="text/css">
	.st0{fill:#4EC8F1;}
</style>
<g>
	<path class="st0" d="M95.9,64.2c-1.3-4.4-2.5-8.9-4-13.2c-0.9-2.6-2.1-5.1-3.5-7.5c-1.8-2.8-3.8-5.4-6-7.9
		c-1.7-2.1-3.6-3.9-5.7-5.7c-1.9-1.5-3.9-2.8-6-3.9c-1.8-1.1-3.8-2-5.8-2.6c-2.1-0.7-4.4-0.7-6.5,0c-0.2-0.6-0.4-1.1-0.6-1.5
		c-1.6-3.9-4.1-5.1-8.3-4.3c-0.4,0-0.8-0.1-1.1-0.4c-2.2-2.9-5.8-4.4-9.4-4c-1.3,0.1-2.5,0.7-3.5,1.5c-1,0.9-2.1,1.6-3,2.3
		c-1.6-1.4-3.8-2-5.9-1.7c-2,0.1-4,0.7-5.8,1.7c-2.1,1.2-3.7,3-4.8,5.1c-1,2-1.4,2.3-3.6,2.2c-0.9,0.1-1.7,0.4-2.5,0.9
		c-0.6,0.4-1.2,0.8-1.7,1.3c-0.5,0.2-0.9,0.5-1.3,0.9c-1.5,1.9-2.5,4.2-3,6.6c-0.3,1.9-0.6,3.6,0.6,4.9c-0.4,0.9-0.7,1.7-1,2.4
		c-0.6,1.6-0.1,3.2,0.2,4.8c0.2,1.2,0.9,2.3,1.9,3C5.8,49.4,6,49.8,6,50.2c0,1.6,0,3.2-0.1,4.9c-0.2,1.1,0.5,2.2,1.6,2.4
		c1.5,0.5,3,0.8,4.6,1c0.7,0,1.4-0.4,1.8-0.9c1.3-1.5,1.7-3.8,4-4.3c0,0,0.1-0.1,0.1-0.1c2.7-2.8,4.2-5.9,3-9.8
		c-0.3-0.4-0.1-1,0.3-1.3c0.1,0,0.2-0.1,0.3-0.1c2-0.9,3.8-2,4.3-4.4c0.1-0.5,0.3-1,0.5-1.5c3.5,0.4,6-0.8,7.3-4.1
		c1.6,0.8,3.5,0.7,5-0.3c0.4,1.8,1.8,3.2,3.6,3.6c1.7,0.5,3.4,1.1,5-0.3c0.6,1.7,1.1,3.2,1.7,4.8c0.3,1.3,1.2,2.4,2.5,2.9
		c0.4,0.2,0.7,0.7,0.8,1.2c0,4.1-0.9,8.2-2.7,12c-1.3,2.8-3,5.5-4.4,8.3c-2,4.3-5,7.9-8,11.5c-1.1,1.3-2.3,2.4-3.5,3.6
		c-1.1,1.1-2.2,2.2-3.4,3.1c-1.2,1-2.5,1.8-3.8,2.8c-0.5,0.5-1,1-1.4,1.6c0.6,0.2,1.1,0.2,1.7,0.2c1.6-1.1,3.1-2.2,4.6-3.5
		c1.7-1.5,3.3-3.1,4.9-4.9c2.8-3,5.5-6.3,8-9.6c2.1-3.3,3.9-6.7,5.6-10.2c1.1-2,2-4.1,2.8-6.3c1.1-3.3,1.5-6.7,1.2-10.1
		c0.6-0.2,1.2,0.1,1.4,0.7c0,0.1,0.1,0.3,0.1,0.4c0.2,0.8,0.2,1.7,0.2,2.5c-0.4,3-0.8,6-1.2,9c-0.5,3.9-1.1,7.7-2,11.5
		c-1.5,6-4.4,11.5-8.5,16.1c-0.2,0.4-0.3,0.9-0.3,1.3c0.4-0.1,0.8-0.3,1.2-0.6c2.4-2.8,4.4-5.9,6-9.2c2.2-4.7,3.7-9.7,4.4-14.8
		c0.5-3.7,0.9-7.3,1.5-11C56.6,46.1,57,44,56,42c0-0.3,0.1-0.6,0.2-0.9c0.3,0.1,0.5,0.3,0.8,0.5c2.6,4,2.8,8.6,2.8,13.2
		c-0.1,2.6-0.4,5.3-0.8,7.9c-0.8,7.2-2.6,14-6.6,20.1c-0.4,0.7-0.7,1.3-1,2l0.4,0.3c0.4-0.3,0.7-0.6,1.1-0.9c0.6-1,1.1-2,1.6-3
		c0.7-1.4,1.6-2.8,2.2-4.3c0.6-1.3,1-2.6,1.4-4c0.6-2,1.1-4.1,1.5-6.2c0.5-3.1,0.6-6.3,1.1-9.5c0.5-2.9,0-5.8-0.1-8.6
		c0-0.7-0.1-1.3-0.2-2c-0.7-1.9-1.5-3.7-2.4-5.5c-0.4-0.8-0.2-1.7,0.5-2.2c0.8-0.8,1.3-0.3,1.9,0.2c0.5,0.4,0.9,0.9,1.2,1.5
		c0.7,1.6,1.3,3.3,2.1,4.9c1.5,3.4,2.3,7.1,2.2,10.9c0,2.8-0.2,5.6,0.1,8.4c0.3,3.2,0,6.5-0.8,9.7c-0.8,3.4-2.1,6.6-3.2,10
		c0,0.3,0,0.6,0.1,0.9c0.3-0.1,0.7-0.2,1-0.4c0.1-0.2,0.2-0.4,0.2-0.6c0.7-2.4,1.6-4.8,2.2-7.2c0.8-3,1.3-6,1.6-9.1
		c0.2-4.1-0.1-8.3-0.3-12.4c0-1.9-0.2-3.8-0.6-5.7c-1.3-4.5-2.5-9-5.9-12.5c1.5-1.2,2.4-1.2,3.6,0.2c1.4,1.5,2.8,3.1,4,4.8
		c3.5,5.6,5.4,11.9,5.6,18.4c0.4,5.8-0.1,11.6-1.3,17.3c-0.5,1.9-0.7,3.9-1,5.9l0.5,0.3c0.3-0.4,0.6-0.9,0.7-1.4
		c0.4-2,0.7-3.9,1-5.9c0.8-4.8,1.6-9.6,1.2-14.6c-0.3-4.2-0.6-8.2-2-12.2c-1.4-4.4-3.6-8.5-6.7-11.9c-0.5-0.5-1-0.9-1.6-1.3l0.3-0.4
		c0.6,0.1,1.2,0.3,1.8,0.4c1.2,0.2,2.4,0.8,3.3,1.7c3,3.1,5.4,6.7,7.1,10.7c1.7,3.9,3.2,7.7,3.6,11.9c0.2,2.1,0.5,4.1,0.6,6.2
		c0.1,2.1,0.1,4.2-0.1,6.2c-0.3,2.9-0.9,5.8-1.4,8.7c-0.2,1.2-0.3,2.4-0.4,3.6l0.4,0.2c0.3-0.2,0.5-0.4,0.7-0.7
		c3.1-16.7,2.7-32.8-9-46.8c2.4,1.2,4.7,2.5,6.9,3.8c0.3,0.1,0.5,0.4,0.6,0.6c-0.8,1.7,0.9,2.4,1.5,3.4c2.4,4.1,4.1,8.6,5.2,13.3
		c0.5,2,0.4,4.2,1,6.2c0.8,3.1,0.9,6.4,0.4,9.6c-0.5,3.3-0.9,6.6-1.4,10c1.3,0.1,1.2-1,1.3-1.7c0.4-2.6,0.7-5.2,1.1-7.8
		c0.2-1.2,0.4-2.4,0.4-3.7c0-2.8-0.3-5.6-0.9-8.4c-0.7-4.5-2-8.9-3.8-13.1c-1.1-2.3-2.3-4.6-3.5-7c0.3,0.2,0.4,0.3,0.6,0.4
		c3.7,2.9,6.8,6.5,9.3,10.5c1.3,2,2.4,4.1,3.1,6.3c0.7,2.9,1.2,5.7,1.5,8.7c0.3,1.9,0.5,3.7,0.7,5.6c0,0.2,0,0.4,0,0.6
		c-0.1,1-0.2,2-0.2,2.9c0.1,0.4,0.3,0.8,0.5,1.1c0.4-0.3,0.7-0.6,0.9-1c0.2-1.7,0.4-3.5,0.4-5.2C97.1,70.9,96.7,67.5,95.9,64.2z
		 M89.4,51.6c-0.6-0.7-1.1-1.4-1.8-2.1c-1.7-1.8-3.4-3.6-5.2-5.3c-4.8-4.7-10.7-7.2-17.1-8.9c-3.1-0.9-5.7-0.3-7.8,2.3
		c-0.6,0.9-1.4,1.6-2.3,2.2c0,0-0.1,0-0.1,0.1l0,0c0,0.1-0.1,0.1-0.1,0.2l0,0c0,0-0.1,0.1-0.1,0.1l0,0c-0.1,0-0.1,0.1-0.2,0.1l0,0
		c-0.2,0.1-0.5,0.2-0.7,0.3c-0.2,0.1-0.4,0.2-0.6,0.2c-0.3,0.2-0.7,0.2-1,0.2c-0.5,0-0.9-0.1-1.3-0.4c0,0-0.1,0-0.1-0.1
		c-0.2-0.2-0.4-0.4-0.5-0.7c-2-1.5-1.5-5.1-1-7.4c-0.1-0.4-0.2-0.8-0.3-1.1c-1.1-0.1-2-0.2-2.5,1.3c-0.4,1.5-1.7,1.8-3.2,1.4
		c-2.6-0.7-3.5-2-3.7-4.8c0-0.5-0.9-1-1.4-1.4c-0.4,0.3-0.8,0.7-1,1.2c-0.3,1.7-1.2,2.3-2.7,1.5c-0.6-0.4-1.2-0.9-1.8-1.4
		c-0.3-0.3-0.7-0.5-1.2-0.7c-0.3-0.1-0.7,0-1,0.2c-0.1,0.4-0.1,0.8,0,1.2c1.1,1.9,1,3-0.3,3.9c-1.9,1.3-3.3,1-4.7-0.5
		c-0.4-0.3-0.9-0.4-1.4-0.5c-0.1,0.4-0.2,0.9-0.1,1.4c1.1,2.5-0.7,5.8-3.4,6.1c-0.4-0.1-0.8-0.2-1.1-0.4c-0.4-0.2-0.9-0.2-1.4,0
		c-0.3,0.4-0.3,0.9-0.1,1.4c1.7,2.9,2,5.8,0.3,8.8c-1,1.7-1.9,2.3-3.8,1.8c-0.3-0.1-0.7-0.1-1,0.1c-0.2,0.4-0.2,0.8-0.1,1.1
		c0.5,1.3,0.1,2.9-1.1,3.7c-0.7,0.5-2.1,0.2-3.3-0.6c-1.7-1.1-1.3-2.8-1.5-4.3C7.7,51.1,8.2,50.6,9,51c0.2,0.1,0.4,0.2,0.6,0.2
		c0.4-0.2,0.8-0.4,1.2-0.6c-0.1-0.4-0.3-0.7-0.6-1c-1.2-0.7-2.5-1.2-3.7-2c-0.5-0.3-0.9-0.8-1-1.4c-0.3-1.4-0.4-2.8-0.4-4.3
		c0.2-0.6,0.7-1,1.3-1.2c0.7,0,1.3,0,2,0.1c0.4,0,0.8-0.3,1-0.6c0-0.4-0.1-0.8-0.5-1c-0.4-0.2-0.9-0.4-1.3-0.4
		c-1.2-0.2-2.1-1.2-2.2-2.4c-0.4-3.4,1-6.7,3.8-8.6c1.5-0.8,2.8-1.9,4.7-1.7c1.1,0,2.2,0.4,3,1.1c1,1.1,1.6,0.8,2.2-0.5
		c-0.5-0.5-0.9-1-1.3-1.6c-0.6-1.3-0.4-2.9,0.6-3.9c2.4-3.2,6.5-4.7,10.5-4c1.1,0.4,2.2,0.9,3.2,1.6c0,0,0,0,0,0.1
		c0.3,0.2,0.7,0.4,1,0.6c0.5-0.8,1.2-1.5,2-2.2c0.4-0.5,0.8-0.9,1.2-1.3c0.3-0.2,0.5-0.4,0.8-0.6c0.2-0.1,0.3-0.2,0.5-0.3
		c0.8-0.6,1.8-0.9,2.8-0.7c0.4,0.1,0.7,0.2,1,0.3c1.8,0.3,3.4,1.2,4.6,2.6l0,0c1,0.6,1.7,1.6,2.1,2.6c0,0.1,0.1,0.2,0.1,0.3
		c0.4-0.4,0.8-0.7,1.3-1c0.2-0.1,0.4-0.3,0.6-0.3c3-0.5,5,0.9,5.9,3.7c0.1,0.2,0.1,0.4,0.1,0.6c0.6,1.7,0.9,1.9,2.6,1.4
		c3.7-1.2,6.9,0.3,10,2c2.3,1.2,4.5,2.6,6.5,4.2c2.2,1.9,4.3,4,6.1,6.3c2.1,2.5,4,5.2,5.9,7.9c0.8,1.1,1.6,2.4,1.3,4
		c0,0.2,0.1,0.5,0.3,0.7c0.2,0.5,0.5,0.9,0.8,1.4L89.4,51.6z"/>
	<path class="st0" d="M13.4,66.5c0.3-1.5,0.6-2.9,1.1-4.4c0.3-1,1.1-0.3,1.4,0.1c0.6,0.9,1,1.9,1.2,2.9c0.1,0.9-0.1,1.9-0.6,2.7
		c-0.4,0.5-1,0.9-1.7,0.9C13.8,68.6,13.4,67.7,13.4,66.5z"/>
</g>
</svg>
